<svg width="64" height="64" viewBox="0 0 256 256" xmlns="http://www.w3.org/2000/svg">
    <path fill="#000000" d="M198.1 62.6a76 76 0 0 0-140.2 0A72.27 72.27 0 0 0 16 127.8c-.11 38.82 31.36 71.2 70.14 72.2a71.68 71.68 0 0 0 33.86-7.51V232a8 8 0 0 0 16 0v-39.51a71.45 71.45 0 0 0 32 7.51h1.86c38.78-1 70.25-33.36 70.14-72.18a72.26 72.26 0 0 0-41.9-65.22ZM169.45 184a55.61 55.61 0 0 1-32.52-9.4q-.47-.3-.93-.57v-41.09l43.58-21.78a8 8 0 1 0-7.16-14.32L136 115.06V88a8 8 0 0 0-16 0v51.06l-36.42-18.22a8 8 0 1 0-7.16 14.32L120 156.94V174q-.47.27-.93.57A55.7 55.7 0 0 1 86.55 184a56 56 0 0 1-22-106.86a15.9 15.9 0 0 0 8.05-8.33a60 60 0 0 1 110.7 0a15.9 15.9 0 0 0 8.05 8.33a56 56 0 0 1-22 106.86Z"/>
</svg>